<svg xmlns="http://www.w3.org/2000/svg" viewBox="0 0 800 1060" width="800" height="1060" preserveAspectRatio="xMidYMid slice" role="img" aria-hidden="true">
<defs><linearGradient id="bgFl" x1="0" y1="0" x2="0" y2="1"><stop offset="0" stop-color="#F2E9D8"/><stop offset="0.55" stop-color="#DCC9A8"/><stop offset="1" stop-color="#9C8563"/></linearGradient><filter id="petFl" x="-60%" y="-60%" width="220%" height="220%"><feGaussianBlur stdDeviation="26"/></filter><filter id="bkFl" x="-60%" y="-60%" width="220%" height="220%"><feGaussianBlur stdDeviation="14"/></filter><filter id="grain"><feTurbulence type="fractalNoise" baseFrequency="0.8" numOctaves="2" stitchTiles="stitch" result="n"/><feColorMatrix in="n" type="matrix" values="0 0 0 0 0.5 0 0 0 0 0.45 0 0 0 0 0.4 0 0 0 0.035 0"/><feComposite operator="over" in2="SourceGraphic"/></filter></defs>
<g filter="url(#grain)"><rect width="800" height="1060" fill="url(#bgFl)"/><ellipse cx="430" cy="380" rx="190" ry="110" transform="rotate(-28 430 380)" fill="#FFF8EA" opacity="0.5" filter="url(#petFl)"/><ellipse cx="300" cy="520" rx="160" ry="95" transform="rotate(22 300 520)" fill="#FFF8EA" opacity="0.42" filter="url(#petFl)"/><ellipse cx="540" cy="560" rx="175" ry="100" transform="rotate(60 540 560)" fill="#FFF8EA" opacity="0.38" filter="url(#petFl)"/><ellipse cx="400" cy="660" rx="150" ry="90" transform="rotate(-60 400 660)" fill="#FFF8EA" opacity="0.34" filter="url(#petFl)"/><ellipse cx="460" cy="470" rx="120" ry="75" transform="rotate(8 460 470)" fill="#FFF8EA" opacity="0.5" filter="url(#petFl)"/><rect width="800" height="1060" fill="#6E5636" opacity="0.10"/><circle cx="469" cy="694" r="29" fill="#FFF3D6" opacity="0.39" filter="url(#bkFl)"/><circle cx="534" cy="824" r="11" fill="#FFF3D6" opacity="0.27" filter="url(#bkFl)"/><circle cx="648" cy="627" r="32" fill="#FFF3D6" opacity="0.18" filter="url(#bkFl)"/><circle cx="383" cy="338" r="23" fill="#FFF3D6" opacity="0.29" filter="url(#bkFl)"/><circle cx="127" cy="316" r="17" fill="#FFF3D6" opacity="0.38" filter="url(#bkFl)"/></g>
</svg>