<svg xmlns="http://www.w3.org/2000/svg" viewBox="0 0 1200 1200" width="1200" height="1200" preserveAspectRatio="xMidYMid slice" role="img" aria-hidden="true">
<defs><linearGradient id="bgQ3" x1="0" y1="0" x2="0" y2="1"><stop offset="0" stop-color="#E9D9B8"/><stop offset="0.55" stop-color="#C9AE7F"/><stop offset="1" stop-color="#8A6B44"/></linearGradient><filter id="dQ3" x="-60%" y="-60%" width="220%" height="220%"><feGaussianBlur stdDeviation="20"/></filter><radialGradient id="vigQ3" cx="0.5" cy="0.44" r="0.85"><stop offset="0.55" stop-color="#000" stop-opacity="0"/><stop offset="1" stop-color="#000" stop-opacity="0.4"/></radialGradient><linearGradient id="bodyq3" x1="0" y1="0" x2="1" y2="0"><stop offset="0" stop-color="#181410"/><stop offset="0.45" stop-color="#3A2E20"/><stop offset="0.75" stop-color="#181410"/><stop offset="1" stop-color="#181410"/></linearGradient><linearGradient id="streakq3" x1="0" y1="0" x2="0" y2="1"><stop offset="0" stop-color="#FFF" stop-opacity="0.85"/><stop offset="1" stop-color="#FFF" stop-opacity="0.05"/></linearGradient><linearGradient id="capq3" x1="0" y1="0" x2="1" y2="0"><stop offset="0" stop-color="#6E5A42"/><stop offset="0.5" stop-color="#C6A272"/><stop offset="1" stop-color="#6E5A42"/></linearGradient><filter id="bq3s" x="-60%" y="-60%" width="220%" height="220%"><feGaussianBlur stdDeviation="18"/></filter><filter id="bq3g" x="-60%" y="-60%" width="220%" height="220%"><feGaussianBlur stdDeviation="60"/></filter><filter id="bq3r" x="-60%" y="-60%" width="220%" height="220%"><feGaussianBlur stdDeviation="6"/></filter><filter id="bq3e" x="-60%" y="-60%" width="220%" height="220%"><feGaussianBlur stdDeviation="2"/></filter><filter id="grain"><feTurbulence type="fractalNoise" baseFrequency="0.8" numOctaves="2" stitchTiles="stitch" result="n"/><feColorMatrix in="n" type="matrix" values="0 0 0 0 0.5 0 0 0 0 0.45 0 0 0 0 0.4 0 0 0 0.035 0"/><feComposite operator="over" in2="SourceGraphic"/></filter></defs>
<g filter="url(#grain)"><rect width="1200" height="1200" fill="url(#bgQ3)"/><path d="M0 760 Q400 640 720 770 T1200 730 L1200 1200 L0 1200 Z" fill="#B0905C" opacity="0.75" filter="url(#dQ3)"/><path d="M0 930 Q460 830 860 940 T1200 900 L1200 1200 L0 1200 Z" fill="#7A5A34" opacity="0.55" filter="url(#dQ3)"/><ellipse cx="850" cy="835" rx="360" ry="40" fill="#4A3418" opacity="0.4" filter="url(#dQ3)"/><ellipse cx="600" cy="826" rx="195.5" ry="36.800000000000004" fill="#000" opacity="0.5" filter="url(#bq3s)"/><ellipse cx="600" cy="622.0" rx="391.0" ry="270.0" fill="#FFEFC9" opacity="0.14" filter="url(#bq3g)"/><g transform="translate(0 1648) scale(1 -1)" opacity="0.14"><path d="M485.0 820 L485.0 496.8 Q485.0 460 521.8 460 L678.2 460 Q715.0 460 715.0 496.8 L715.0 820 Z" fill="url(#bodyq3)" filter="url(#bq3r)"/></g><path d="M485.0 820 L485.0 496.8 Q485.0 460 521.8 460 L678.2 460 Q715.0 460 715.0 496.8 L715.0 820 Z" fill="url(#bodyq3)"/><path d="M488.0 816 L488.0 500.8" stroke="#FFEFC9" stroke-width="5" opacity="0.55" filter="url(#bq3e)" stroke-linecap="round"/><path d="M711.0 814 L711.0 502.8" stroke="#FFF" stroke-width="3" opacity="0.28" filter="url(#bq3e)" stroke-linecap="round"/><rect x="531.0" y="496.0" width="23.0" height="266.4" rx="11.5" fill="url(#streakq3)" opacity="0.5"/><rect x="570.1" y="517.6" width="10.35" height="216.0" rx="4.6000000000000005" fill="url(#streakq3)" opacity="0.3"/><rect x="570.1" y="413.2" width="59.800000000000004" height="48.800000000000004" fill="url(#bodyq3)"/><rect x="553.356" y="370.0" width="93.28800000000001" height="43.199999999999996" rx="6.911999999999999" fill="url(#capq3)"/><rect x="553.356" y="370.0" width="93.28800000000001" height="15.119999999999997" rx="5.183999999999999" fill="#FFF" opacity="0.18"/><rect x="540.2" y="604.0" width="119.60000000000001" height="79.2" rx="5" fill="#F6F1E8" opacity="0.94"/><rect x="567.8" y="631.0" width="64.4" height="3" fill="#1C1B19" opacity="0.6"/><rect x="577.0" y="645.4" width="46.0" height="2" fill="#1C1B19" opacity="0.35"/><rect width="1200" height="1200" fill="url(#vigQ3)"/></g>
</svg>